<svg xmlns="http://www.w3.org/2000/svg" xmlns:xlink="http://www.w3.org/1999/xlink" style="margin:auto;background:#2a2c41;display:block;z-index:1;position:relative" width="1536" height="792" preserveAspectRatio="xMidYMid" viewBox="0 0 1536 792">
<g transform="translate(768,396) scale(1,1) translate(-768,-396)"><path id="path0" d="M 37.31936668492722 69.59897717554776
c 0 32.81016115666862 -8.028018155355086 9.424195225851625 -17.45221338120671 9.424195225851625
S 2.414939922513799 102.40913833221637 2.414939922513799 69.59897717554776
s 8.028018155355086 -9.424195225851625 17.45221338120671 -9.424195225851625
S 37.31936668492722 36.78881601887914 37.31936668492722 69.59897717554776
z" fill="none" stroke="none"></path>
<circle cx="0" cy="0" r="6.274743747678197" fill="#e0ff77" opacity="0.9">
  <animateMotion begin="-5.978528929555937s" dur="10s" repeatCount="indefinite">
    <mpath xlink:href="#path0"></mpath>
  </animateMotion>
</circle><path id="path1" d="M 1519.3725232443455 495.6807435466139
c 0 30.173376025167755 -7.382847325307003 8.666820773186483 -16.049668098493484 8.666820773186483
S 1487.2731870473588 525.8541195717817 1487.2731870473588 495.6807435466139
s 7.382847325307003 -8.666820773186483 16.049668098493484 -8.666820773186483
S 1519.3725232443455 465.5073675214461 1519.3725232443455 495.6807435466139
z" fill="none" stroke="none"></path>
<circle cx="0" cy="0" r="6.977906007987486" fill="#e0ff77" opacity="0.9">
  <animateMotion begin="-4.787376084997836s" dur="10s" repeatCount="indefinite">
    <mpath xlink:href="#path1"></mpath>
  </animateMotion>
</circle><path id="path2" d="M 731.8194793241909 465.940377375302
c 0 32.64695829161728 -7.98808553943827 9.377317807166666 -17.365403346604936 9.377317807166666
S 697.088672630981 498.5873356669193 697.088672630981 465.940377375302
s 7.98808553943827 -9.377317807166666 17.365403346604936 -9.377317807166666
S 731.8194793241909 433.2934190836847 731.8194793241909 465.940377375302
z" fill="none" stroke="none"></path>
<circle cx="0" cy="0" r="6.048633847690152" fill="#51cacc" opacity="0.9">
  <animateMotion begin="-5.838082379196987s" dur="10s" repeatCount="indefinite">
    <mpath xlink:href="#path2"></mpath>
  </animateMotion>
</circle><path id="path3" d="M 47.77808363252329 268.37596252392905
c 0 25.185950306283868 -6.162519755792861 7.234262322017707 -13.396782077810567 7.234262322017707
S 20.98451947690216 293.5619128302129 20.98451947690216 268.37596252392905
s 6.162519755792861 -7.234262322017707 13.396782077810567 -7.234262322017707
S 47.77808363252329 243.19001221764518 47.77808363252329 268.37596252392905
z" fill="none" stroke="none"></path>
<circle cx="0" cy="0" r="6.351022317582445" fill="#9df871" opacity="0.9">
  <animateMotion begin="-2.5033939755068024s" dur="10s" repeatCount="indefinite">
    <mpath xlink:href="#path3"></mpath>
  </animateMotion>
</circle><path id="path4" d="M 357.5480088143962 270.2542037392087
c 0 24.99894377341011 -6.116762838174814 7.180547679596521 -13.297310517771335 7.180547679596521
S 330.95338777885354 295.25314751261885 330.95338777885354 270.2542037392087
s 6.116762838174814 -7.180547679596521 13.297310517771335 -7.180547679596521
S 357.5480088143962 245.25525996579861 357.5480088143962 270.2542037392087
z" fill="none" stroke="none"></path>
<circle cx="0" cy="0" r="6.434425143649474" fill="#ff708e" opacity="0.9">
  <animateMotion begin="-1.3605812785178073s" dur="10s" repeatCount="indefinite">
    <mpath xlink:href="#path4"></mpath>
  </animateMotion>
</circle><path id="path5" d="M 1221.0612962128082 596.4694307381017
c 0 33.508129836988516 -8.198797726071657 9.624675591475425 -17.82347331754708 9.624675591475425
S 1185.4143495777141 629.9775605750901 1185.4143495777141 596.4694307381017
s 8.198797726071657 -9.624675591475425 17.82347331754708 -9.624675591475425
S 1221.0612962128082 562.9613009011132 1221.0612962128082 596.4694307381017
z" fill="none" stroke="none"></path>
<circle cx="0" cy="0" r="7.502963682708557" fill="#de9dd6" opacity="0.9">
  <animateMotion begin="-4.3348913160444695s" dur="10s" repeatCount="indefinite">
    <mpath xlink:href="#path5"></mpath>
  </animateMotion>
</circle><path id="path6" d="M 1186.5842976818399 296.4868610721108
c 0 25.251777528771086 -6.178626416614201 7.25317014124276 -13.431796557856961 7.25317014124276
S 1159.7207045661257 321.73863860088187 1159.7207045661257 296.4868610721108
s 6.178626416614201 -7.25317014124276 13.431796557856961 -7.25317014124276
S 1186.5842976818399 271.2350835433397 1186.5842976818399 296.4868610721108
z" fill="none" stroke="none"></path>
<circle cx="0" cy="0" r="6.102855677859746" fill="#51cacc" opacity="0.9">
  <animateMotion begin="-8.746058068394976s" dur="10s" repeatCount="indefinite">
    <mpath xlink:href="#path6"></mpath>
  </animateMotion>
</circle><path id="path7" d="M 1115.923245639792 426.7890522793198
c 0 33.391119580688134 -8.170167556976883 9.591066262538082 -17.761233819514967 9.591066262538082
S 1080.400778000762 460.18017186000793 1080.400778000762 426.7890522793198
s 8.170167556976883 -9.591066262538082 17.761233819514967 -9.591066262538082
S 1115.923245639792 393.3979326986316 1115.923245639792 426.7890522793198
z" fill="none" stroke="none"></path>
<circle cx="0" cy="0" r="7.8556669690084675" fill="#e0ff77" opacity="0.9">
  <animateMotion begin="-4.5054952004296815s" dur="10s" repeatCount="indefinite">
    <mpath xlink:href="#path7"></mpath>
  </animateMotion>
</circle><path id="path8" d="M 384.98209629932956 424.9098607708546
c 0 21.095674898024445 -5.161707687814491 6.059395981347447 -11.221103669161938 6.059395981347447
S 362.53988896100566 446.0055356688791 362.53988896100566 424.9098607708546
s 5.161707687814491 -6.059395981347447 11.221103669161938 -6.059395981347447
S 384.98209629932956 403.81418587283014 384.98209629932956 424.9098607708546
z" fill="none" stroke="none"></path>
<circle cx="0" cy="0" r="7.310998169954702" fill="#de9dd6" opacity="0.9">
  <animateMotion begin="-7.4300897591776565s" dur="10s" repeatCount="indefinite">
    <mpath xlink:href="#path8"></mpath>
  </animateMotion>
</circle><path id="path9" d="M 179.58774220609283 440.1986591516235
c 0 25.168179499746184 -6.1581715797251295 7.2291579414164575 -13.387329521141586 7.2291579414164575
S 152.81308316380964 465.3668386513697 152.81308316380964 440.1986591516235
s 6.1581715797251295 -7.2291579414164575 13.387329521141586 -7.2291579414164575
S 179.58774220609283 415.0304796518773 179.58774220609283 440.1986591516235
z" fill="none" stroke="none"></path>
<circle cx="0" cy="0" r="6.743726286284869" fill="#de9dd6" opacity="0.9">
  <animateMotion begin="-2.246431921467751s" dur="10s" repeatCount="indefinite">
    <mpath xlink:href="#path9"></mpath>
  </animateMotion>
</circle><path id="path10" d="M 1325.919730611281 356.9661361170271
c 0 22.046751444826615 -5.394417906712895 6.332577542662964 -11.72699544937586 6.332577542662964
S 1302.4657397125293 379.0128875618537 1302.4657397125293 356.9661361170271
s 5.394417906712895 -6.332577542662964 11.72699544937586 -6.332577542662964
S 1325.919730611281 334.91938467220047 1325.919730611281 356.9661361170271
z" fill="none" stroke="none"></path>
<circle cx="0" cy="0" r="4.695844603225948" fill="#ff708e" opacity="0.9">
  <animateMotion begin="-1.7138475340349402s" dur="10s" repeatCount="indefinite">
    <mpath xlink:href="#path10"></mpath>
  </animateMotion>
</circle><path id="path11" d="M 1455.0895536705543 554.9177475822854
c 0 33.1401608273073 -8.108762755617741 9.518982365290395 -17.627745120908138 9.518982365290395
S 1419.8340634287379 588.0579084095928 1419.8340634287379 554.9177475822854
s 8.108762755617741 -9.518982365290395 17.627745120908138 -9.518982365290395
S 1455.0895536705543 521.7775867549781 1455.0895536705543 554.9177475822854
z" fill="none" stroke="none"></path>
<circle cx="0" cy="0" r="6.990811043328492" fill="#e0ff77" opacity="0.9">
  <animateMotion begin="-9.203688722576128s" dur="10s" repeatCount="indefinite">
    <mpath xlink:href="#path11"></mpath>
  </animateMotion>
</circle><path id="path12" d="M 81.68364006901653 724.1400645127219
c 0 33.89504128507829 -8.293467548476603 9.73580973082036 -18.029277279296963 9.73580973082036
S 45.62508551042261 758.0351057978002 45.62508551042261 724.1400645127219
s 8.293467548476603 -9.73580973082036 18.029277279296963 -9.73580973082036
S 81.68364006901653 690.2450232276436 81.68364006901653 724.1400645127219
z" fill="none" stroke="none"></path>
<circle cx="0" cy="0" r="6.2653685299815915" fill="#ff708e" opacity="0.9">
  <animateMotion begin="-8.790839926408534s" dur="10s" repeatCount="indefinite">
    <mpath xlink:href="#path12"></mpath>
  </animateMotion>
</circle><path id="path13" d="M 648.7462631568636 411.03267894651174
c 0 20.575416992618816 -5.034410540747157 5.909960200007533 -10.944370740754689 5.909960200007533
S 626.8575216753542 431.6080959391306 626.8575216753542 411.03267894651174
s 5.034410540747157 -5.909960200007533 10.944370740754689 -5.909960200007533
S 648.7462631568636 390.4572619538929 648.7462631568636 411.03267894651174
z" fill="none" stroke="none"></path>
<circle cx="0" cy="0" r="7.265754592201697" fill="#51cacc" opacity="0.9">
  <animateMotion begin="-6.299481762703703s" dur="10s" repeatCount="indefinite">
    <mpath xlink:href="#path13"></mpath>
  </animateMotion>
</circle><path id="path14" d="M 587.3867272046767 254.25108996693066
c 0 31.389709268342585 -7.680460778424249 9.016193087715424 -16.696653866139673 9.016193087715424
S 553.9934194723975 285.6407992352732 553.9934194723975 254.25108996693066
s 7.680460778424249 -9.016193087715424 16.696653866139673 -9.016193087715424
S 587.3867272046767 222.86138069858808 587.3867272046767 254.25108996693066
z" fill="none" stroke="none"></path>
<circle cx="0" cy="0" r="6.4165442655445" fill="#de9dd6" opacity="0.9">
  <animateMotion begin="-3.73548068155628s" dur="10s" repeatCount="indefinite">
    <mpath xlink:href="#path14"></mpath>
  </animateMotion>
</circle><path id="path15" d="M 950.6410037686284 629.8323643606468
c 0 22.273872054617705 -5.449989970810715 6.397814313560405 -11.847804284371119 6.397814313560405
S 926.9453951998861 652.1062364152646 926.9453951998861 629.8323643606468
s 5.449989970810715 -6.397814313560405 11.847804284371119 -6.397814313560405
S 950.6410037686284 607.558492306029 950.6410037686284 629.8323643606468
z" fill="none" stroke="none"></path>
<circle cx="0" cy="0" r="5.136069052790312" fill="#de9dd6" opacity="0.9">
  <animateMotion begin="-2.083386655120887s" dur="10s" repeatCount="indefinite">
    <mpath xlink:href="#path15"></mpath>
  </animateMotion>
</circle><path id="path16" d="M 947.769871275254 770.2373759961821
c 0 19.362178533177783 -4.737554321947754 5.561476812721278 -10.299031134669033 5.561476812721278
S 927.171809005916 789.5995545293599 927.171809005916 770.2373759961821
s 4.737554321947754 -5.561476812721278 10.299031134669033 -5.561476812721278
S 947.769871275254 750.8751974630043 947.769871275254 770.2373759961821
z" fill="none" stroke="none"></path>
<circle cx="0" cy="0" r="4.925189171872605" fill="#ff708e" opacity="0.9">
  <animateMotion begin="-5.610353842793023s" dur="10s" repeatCount="indefinite">
    <mpath xlink:href="#path16"></mpath>
  </animateMotion>
</circle><path id="path17" d="M 1474.8960484647425 18.187825726365624
c 0 20.903066275884218 -5.114580046226989 6.004072228179509 -11.118652274406497 6.004072228179509
S 1452.6587439159296 39.090892002249845 1452.6587439159296 18.187825726365624
s 5.114580046226989 -6.004072228179509 11.118652274406497 -6.004072228179509
S 1474.8960484647425 -2.715240549518594 1474.8960484647425 18.187825726365624
z" fill="none" stroke="none"></path>
<circle cx="0" cy="0" r="6.6643282660940315" fill="#de9dd6" opacity="0.9">
  <animateMotion begin="-1.8827793328273468s" dur="10s" repeatCount="indefinite">
    <mpath xlink:href="#path17"></mpath>
  </animateMotion>
</circle><path id="path18" d="M 574.4363429986556 195.07262741346813
c 0 19.55626818726528 -4.785044343692569 5.617225968682582 -10.402270312375151 5.617225968682582
S 553.6318023739054 214.62889560073341 553.6318023739054 195.07262741346813
s 4.785044343692569 -5.617225968682582 10.402270312375151 -5.617225968682582
S 574.4363429986556 175.51635922620284 574.4363429986556 195.07262741346813
z" fill="none" stroke="none"></path>
<circle cx="0" cy="0" r="7.23967335711693" fill="#9df871" opacity="0.9">
  <animateMotion begin="-6.296783393557912s" dur="10s" repeatCount="indefinite">
    <mpath xlink:href="#path18"></mpath>
  </animateMotion>
</circle><path id="path19" d="M 584.1402398103922 170.02793067027338
c 0 24.02762072095024 -5.879098687041015 6.901550632613367 -12.780649319654383 6.901550632613367
S 558.5789411710836 194.05555139122362 558.5789411710836 170.02793067027338
s 5.879098687041015 -6.901550632613367 12.780649319654383 -6.901550632613367
S 584.1402398103922 146.00030994932314 584.1402398103922 170.02793067027338
z" fill="none" stroke="none"></path>
<circle cx="0" cy="0" r="7.552268761449" fill="#ff708e" opacity="0.9">
  <animateMotion begin="-1.8665185787386407s" dur="10s" repeatCount="indefinite">
    <mpath xlink:href="#path19"></mpath>
  </animateMotion>
</circle><path id="path20" d="M 1216.4151602485051 678.3728995834614
c 0 27.563675676294746 -6.744303622923182 7.917225992127215 -14.661529615050398 7.917225992127215
S 1187.0921010184045 705.9365752597562 1187.0921010184045 678.3728995834614
s 6.744303622923182 -7.917225992127215 14.661529615050398 -7.917225992127215
S 1216.4151602485051 650.8092239071666 1216.4151602485051 678.3728995834614
z" fill="none" stroke="none"></path>
<circle cx="0" cy="0" r="7.690552453510541" fill="#e0ff77" opacity="0.9">
  <animateMotion begin="-4.306948754536817s" dur="10s" repeatCount="indefinite">
    <mpath xlink:href="#path20"></mpath>
  </animateMotion>
</circle><path id="path21" d="M 579.3837137107657 623.6069605702097
c 0 19.618342988200133 -4.800232858814926 5.635055964695783 -10.435288823510708 5.635055964695783
S 558.5131360637442 643.2253035584098 558.5131360637442 623.6069605702097
s 4.800232858814926 -5.635055964695783 10.435288823510708 -5.635055964695783
S 579.3837137107657 603.9886175820096 579.3837137107657 623.6069605702097
z" fill="none" stroke="none"></path>
<circle cx="0" cy="0" r="6.720341067911026" fill="#ff708e" opacity="0.9">
  <animateMotion begin="-3.980829649220432s" dur="10s" repeatCount="indefinite">
    <mpath xlink:href="#path21"></mpath>
  </animateMotion>
</circle><path id="path22" d="M 1494.972748472333 484.9336160607366
c 0 31.285731279566658 -7.655019355638649 8.986327069662764 -16.641346425301414 8.986327069662764
S 1461.6900556217302 516.2193473403032 1461.6900556217302 484.9336160607366
s 7.655019355638649 -8.986327069662764 16.641346425301414 -8.986327069662764
S 1494.972748472333 453.6478847811699 1494.972748472333 484.9336160607366
z" fill="none" stroke="none"></path>
<circle cx="0" cy="0" r="4.014625962997151" fill="#de9dd6" opacity="0.9">
  <animateMotion begin="-1.6820207286152233s" dur="10s" repeatCount="indefinite">
    <mpath xlink:href="#path22"></mpath>
  </animateMotion>
</circle><path id="path23" d="M 1122.3586227710098 387.78012841197636
c 0 27.70964500606146 -6.780019522759718 7.959153352804887 -14.739172875564606 7.959153352804887
S 1092.8802770198804 415.4897734180378 1092.8802770198804 387.78012841197636
s 6.780019522759718 -7.959153352804887 14.739172875564606 -7.959153352804887
S 1122.3586227710098 360.0704834059149 1122.3586227710098 387.78012841197636
z" fill="none" stroke="none"></path>
<circle cx="0" cy="0" r="4.056208141968447" fill="#ff708e" opacity="0.9">
  <animateMotion begin="-9.29253358547564s" dur="10s" repeatCount="indefinite">
    <mpath xlink:href="#path23"></mpath>
  </animateMotion>
</circle><path id="path24" d="M 1349.4397350843728 400.44522443182586
c 0 33.81521568408368 -8.27393575248856 9.712881100747442 -17.986816853236 9.712881100747442
S 1313.466101377901 434.26044011590955 1313.466101377901 400.44522443182586
s 8.27393575248856 -9.712881100747442 17.986816853236 -9.712881100747442
S 1349.4397350843728 366.6300087477422 1349.4397350843728 400.44522443182586
z" fill="none" stroke="none"></path>
<circle cx="0" cy="0" r="4.407187786685696" fill="#9df871" opacity="0.9">
  <animateMotion begin="-2.337509863275826s" dur="10s" repeatCount="indefinite">
    <mpath xlink:href="#path24"></mpath>
  </animateMotion>
</circle><path id="path25" d="M 485.8910354877038 248.09040326036086
c 0 25.732289756371348 -6.296198557410009 7.391189610872621 -13.68738816828263 7.391189610872621
S 458.51625915113857 273.8226930167322 458.51625915113857 248.09040326036086
s 6.296198557410009 -7.391189610872621 13.68738816828263 -7.391189610872621
S 485.8910354877038 222.3581135039895 485.8910354877038 248.09040326036086
z" fill="none" stroke="none"></path>
<circle cx="0" cy="0" r="5.224042368480442" fill="#de9dd6" opacity="0.9">
  <animateMotion begin="-9.982160322156375s" dur="10s" repeatCount="indefinite">
    <mpath xlink:href="#path25"></mpath>
  </animateMotion>
</circle><path id="path26" d="M 600.5119139569337 305.77640228643185
c 0 25.96975807630161 -6.354302508031244 7.4593985963845055 -13.813701104415749 7.4593985963845055
S 572.8845117481022 331.74616036273346 572.8845117481022 305.77640228643185
s 6.354302508031244 -7.4593985963845055 13.813701104415749 -7.4593985963845055
S 600.5119139569337 279.80664421013023 600.5119139569337 305.77640228643185
z" fill="none" stroke="none"></path>
<circle cx="0" cy="0" r="4.482004409364242" fill="#51cacc" opacity="0.9">
  <animateMotion begin="-1.3043221090008572s" dur="10s" repeatCount="indefinite">
    <mpath xlink:href="#path26"></mpath>
  </animateMotion>
</circle><path id="path27" d="M 1131.1367718032343 722.9622124126787
c 0 31.56621413671768 -7.723648139835176 9.066891294589121 -16.790539434424296 9.066891294589121
S 1097.5556929343857 754.5284265493964 1097.5556929343857 722.9622124126787
s 7.723648139835176 -9.066891294589121 16.790539434424296 -9.066891294589121
S 1131.1367718032343 691.395998275961 1131.1367718032343 722.9622124126787
z" fill="none" stroke="none"></path>
<circle cx="0" cy="0" r="6.194735499222351" fill="#9df871" opacity="0.9">
  <animateMotion begin="-8.098321697868487s" dur="10s" repeatCount="indefinite">
    <mpath xlink:href="#path27"></mpath>
  </animateMotion>
</circle><path id="path28" d="M 687.9683191862563 712.246043872056
c 0 21.87243844278415 -5.351766853021654 6.2825089144167245 -11.634275767438378 6.2825089144167245
S 664.6997676513796 734.1184823148402 664.6997676513796 712.246043872056
s 5.351766853021654 -6.2825089144167245 11.634275767438378 -6.2825089144167245
S 687.9683191862563 690.3736054292718 687.9683191862563 712.246043872056
z" fill="none" stroke="none"></path>
<circle cx="0" cy="0" r="7.924635119468237" fill="#e0ff77" opacity="0.9">
  <animateMotion begin="-6.371358911379776s" dur="10s" repeatCount="indefinite">
    <mpath xlink:href="#path28"></mpath>
  </animateMotion>
</circle><path id="path29" d="M 927.4868453250629 251.82116432852033
c 0 23.757033391303747 -5.812891148936022 6.823828740055332 -12.636719888991355 6.823828740055332
S 902.2134055470801 275.57819771982406 902.2134055470801 251.82116432852033
s 5.812891148936022 -6.823828740055332 12.636719888991355 -6.823828740055332
S 927.4868453250629 228.0641309372166 927.4868453250629 251.82116432852033
z" fill="none" stroke="none"></path>
<circle cx="0" cy="0" r="7.346605579407635" fill="#de9dd6" opacity="0.9">
  <animateMotion begin="-1.7423628487592557s" dur="10s" repeatCount="indefinite">
    <mpath xlink:href="#path29"></mpath>
  </animateMotion>
</circle></g>
</svg>